# xmcd
#
# Track frame offsets:
#	150
#	20826
#	34511
#	50862
#	71867
#	89799
#	98642
#	114554
#	128420
#	138566
#	155209
#	170189
#	189933
#	210220
#	224693
#	243506
#	259303
#	269090
#
# Disc length: 3834 seconds
# Revision: 0
# Processed by: cddbd v1.5.2PL0 Copyright (c) Steve Scherf et al.
# Submitted via: dBpowerAMP V12.0
#
DISCID=200ef812
DTITLE=Jack Derwin - Covered All In Blue
DYEAR=2013
DGENRE=Blues
TTITLE0=Covered All In Blue
TTITLE1=Chemistry
TTITLE2=Confusion
TTITLE3=Crazy Love
TTITLE4=Still The Same
TTITLE5=Woman Let Me Know
TTITLE6=Let's Talk About Love
TTITLE7=Magnolia
TTITLE8=The Rails
TTITLE9=Walkabout Blues
TTITLE10=Temptation
TTITLE11=Jonson Street
TTITLE12=Take Me Back Home
TTITLE13=Love For You
TTITLE14=Room To Move
TTITLE15=When The Blues Is Goin Down
TTITLE16=Take Me Back Home (Alternate Take)
TTITLE17=Covered All In Blue (Alternate Take)
EXTD=
EXTT0=
EXTT1=
EXTT2=
EXTT3=
EXTT4=
EXTT5=
EXTT6=
EXTT7=
EXTT8=
EXTT9=
EXTT10=
EXTT11=
EXTT12=
EXTT13=
EXTT14=
EXTT15=
EXTT16=
EXTT17=
PLAYORDER=
